<svg width="425" height="523" viewBox="0 0 425 523" fill="none" xmlns="http://www.w3.org/2000/svg">
<path opacity="0.07" d="M424.942 263.051C417.546 258.75 412.188 258.633 408.869 262.702C405.55 266.713 403.919 273.514 403.919 283.105V334.781C403.919 344.605 402.987 352.743 401.182 359.195C399.377 365.88 396.29 370.646 392.039 373.436C387.904 376.285 382.314 377.04 375.209 375.703C368.279 374.425 359.602 370.821 349.236 364.833L344.286 361.985V321.296L350.459 324.841C357.855 329.143 362.805 329.666 365.309 326.527C367.93 323.504 369.269 317.168 369.269 307.577V262.063C369.269 250.205 370.434 240.846 372.763 233.929C375.093 227.012 379.693 222.652 386.623 220.676C379.693 210.736 375.093 201.028 372.763 191.495C370.434 181.962 369.327 171.267 369.327 159.409V113.894C369.327 104.303 367.988 96.5142 365.367 90.4107C362.921 84.4235 357.971 79.3083 350.517 75.0068L344.344 71.461V30.7713L349.294 33.6196C359.66 39.6068 368.337 45.9428 375.267 52.6856C382.372 59.4866 387.962 66.7526 392.097 74.3674C396.407 82.0984 399.435 90.3526 401.24 99.13C403.045 107.675 403.977 116.917 403.977 126.683V178.359C403.977 187.95 405.608 196.669 408.927 204.458C412.247 212.305 417.604 218.351 425 222.594L424.942 263.051Z" fill="url(#paint0_linear)"/>
<path opacity="0.07" d="M237.133 113.371C244.529 117.673 249.887 117.789 253.206 113.72C256.526 109.709 258.156 102.908 258.156 93.3172V41.6413C258.156 31.8176 259.088 23.6797 260.893 17.2275C262.699 10.5428 265.669 5.71814 269.803 2.86987C274.113 0.0797184 279.703 -0.675947 286.633 0.602871C293.738 1.93982 302.473 5.60189 312.839 11.5891L317.789 14.4374V55.127L311.616 51.5812C304.22 47.2797 299.154 46.6984 296.533 49.7211C294.087 52.86 292.806 59.196 292.806 68.7871V114.301C292.806 126.16 291.642 135.518 289.312 142.435C286.983 149.295 282.382 153.712 275.452 155.689C282.382 165.628 286.983 175.336 289.312 184.869C291.642 194.402 292.748 205.097 292.748 216.956V262.47C292.748 272.061 293.971 279.85 296.475 285.837C299.096 291.941 304.162 297.114 311.558 301.358L317.731 304.903V345.593L312.781 342.745C302.415 336.758 293.68 330.363 286.575 323.562C279.645 316.82 274.055 309.612 269.745 301.881C265.61 294.266 262.64 286.07 260.835 277.234C259.03 268.69 258.098 259.447 258.098 249.682V198.006C258.098 188.415 256.468 179.695 253.148 171.906C249.829 164.059 244.471 158.014 237.075 153.77L237.133 113.371Z" fill="url(#paint1_linear)"/>
<path opacity="0.4" d="M401.648 280.49C394.252 276.188 388.894 276.072 385.575 280.141C382.255 284.152 380.625 290.953 380.625 300.544V352.22C380.625 362.043 379.693 370.181 377.888 376.633C376.083 383.318 372.996 388.085 368.745 390.875C364.61 393.723 359.02 394.479 351.915 393.142C344.985 391.863 336.308 388.259 325.942 382.272L320.992 379.424V338.734L327.165 342.28C334.561 346.581 339.511 347.104 342.015 343.965C344.636 340.943 345.975 334.607 345.975 325.016V279.501C345.975 267.643 347.14 258.285 349.469 251.367C351.799 244.45 356.399 240.091 363.329 238.114C356.399 228.174 351.799 218.467 349.469 208.934C347.14 199.401 346.033 188.705 346.033 176.847V131.333C346.033 121.742 344.694 113.953 342.073 107.849C339.627 101.862 334.677 96.7467 327.223 92.4452L321.05 88.8994V48.2098L326 51.058C336.366 57.0452 345.043 63.3812 351.973 70.124C359.078 76.925 364.668 84.191 368.803 91.8058C373.113 99.5368 376.141 107.791 377.946 116.568C379.751 125.113 380.683 134.356 380.683 144.121V195.797C380.683 205.388 382.314 214.107 385.633 221.896C388.953 229.744 394.31 235.789 401.706 240.032L401.648 280.49Z" fill="url(#paint2_linear)"/>
<path opacity="0.4" d="M213.839 130.81C221.235 135.111 226.593 135.228 229.912 131.159C233.232 127.148 234.862 120.347 234.862 110.756V59.0797C234.862 49.2561 235.794 41.1181 237.599 34.6659C239.405 27.9812 242.375 23.1566 246.509 20.3083C250.819 17.5181 256.409 16.7625 263.339 18.0413C270.444 19.3782 279.179 23.0403 289.545 29.0275L294.495 31.8758V72.5654L288.322 69.0196C280.926 64.7181 275.86 64.1369 273.239 67.1595C270.793 70.2984 269.512 76.6344 269.512 86.2255V131.74C269.512 143.598 268.347 152.957 266.018 159.874C263.689 166.733 259.088 171.151 252.158 173.127C259.088 183.067 263.689 192.774 266.018 202.307C268.347 211.84 269.454 222.536 269.454 234.394V279.908C269.454 289.499 270.677 297.289 273.181 303.276C275.802 309.379 280.868 314.553 288.264 318.796L294.437 322.342V363.031L289.487 360.183C279.121 354.196 270.386 347.802 263.281 341.001C256.351 334.258 250.76 327.05 246.451 319.319C242.316 311.704 239.346 303.508 237.541 294.673C235.736 286.128 234.804 276.886 234.804 267.12V215.444C234.804 205.853 233.173 197.134 229.854 189.345C226.535 181.497 221.177 175.452 213.781 171.209L213.839 130.81Z" fill="url(#paint3_linear)"/>
<path opacity="0.15" d="M84.5574 7.11322L184.081 64.4857L184.023 302.404L84.4992 245.032L84.5574 7.11322Z" fill="url(#paint4_linear)"/>
<path d="M65.864 43.6758L145.006 89.3063V111.221L65.864 65.5901V43.6758Z" fill="#F2C94C"/>
<path opacity="0.15" d="M96.8452 138.773L172.9 182.602V216.665L96.8452 172.836V138.773Z" fill="white"/>
<path opacity="0.15" d="M96.7869 97.5605L172.958 141.447V149.353L96.7869 105.524V97.5605Z" fill="white"/>
<path opacity="0.15" d="M96.7869 113.023L162.651 150.98V158.886L96.7869 120.928V113.023Z" fill="white"/>
<path opacity="0.2" d="M84.5575 7.11322L184.081 64.4856V96.398L84.5575 39.0255V7.11322Z" fill="url(#paint5_linear)"/>
<path opacity="0.2" d="M109.424 37.5723C109.424 42.397 106.57 44.664 103.076 42.6876C99.5822 40.6531 96.7869 35.131 96.7869 30.3063C96.7869 25.4817 99.6404 23.2147 103.134 25.1911C106.57 27.2255 109.424 32.7477 109.424 37.5723Z" fill="white"/>
<path opacity="0.15" d="M206.863 227.772L306.701 284.111L306.643 517.744L206.804 461.405L206.863 227.772Z" fill="url(#paint6_linear)"/>
<path d="M244.762 296.94L323.904 342.512V364.368L244.704 318.796L244.762 296.94Z" fill="#F2994A"/>
<path opacity="0.15" d="M219.139 319.552L295.252 363.438V397.443L219.139 353.557V319.552Z" fill="white"/>
<path opacity="0.15" d="M219.022 368.147L295.194 412.033V419.939L219.022 376.11V368.147Z" fill="white"/>
<path opacity="0.15" d="M219.022 382.446L284.886 420.404V428.309L219.022 390.352V382.446Z" fill="white"/>
<path opacity="0.2" d="M206.851 227.709L306.375 285.082V316.994L206.851 259.622V227.709Z" fill="url(#paint7_linear)"/>
<path opacity="0.2" d="M231.718 258.227C231.718 263.051 228.864 265.318 225.37 263.342C221.876 261.307 219.081 255.785 219.081 250.961C219.081 246.136 221.934 243.869 225.428 245.845C228.864 247.822 231.718 253.402 231.718 258.227Z" fill="white"/>
<path opacity="0.3" d="M189.614 260.668L16.3641 160.862L16.4224 251.019L174.414 342.047L189.73 364.659L189.614 260.668Z" fill="url(#paint8_linear)"/>
<path opacity="0.15" d="M145.064 256.948L107.095 235.092V242.997L145.064 264.853V256.948Z" fill="white"/>
<path opacity="0.15" d="M145.064 272.817L51.0723 218.641V226.547L145.122 280.722L145.064 272.817Z" fill="white"/>
<path opacity="0.15" d="M145.122 288.686L31.6218 223.292V231.197L145.122 296.591V288.686Z" fill="white"/>
<path d="M154.44 270.608C154.44 278.048 158.865 286.593 164.281 289.732C169.697 292.871 174.123 289.383 174.123 281.943C174.123 274.502 169.697 265.958 164.281 262.819C158.807 259.68 154.44 263.167 154.44 270.608Z" fill="#F2994A"/>
<path opacity="0.15" d="M33.4853 97.5605L10.5406 84.3073V76.5763L33.4853 89.8295C35.3488 90.9339 38.0859 93.0847 40.4153 96.4561C42.9194 100.06 44.7247 104.594 44.7247 109.535C44.7247 114.999 43.327 118.08 40.7064 119.01C38.2023 119.824 35.2906 118.429 33.4853 117.382L24.0512 111.918L23.993 111.86C23.1777 111.395 21.8965 110.93 20.9065 111.221C20.0912 111.453 19.1012 112.325 19.1012 115.348C19.1012 118.37 20.033 120.23 20.8483 121.335C21.8383 122.73 23.1194 123.718 23.9347 124.125L24.0512 124.183L52.9358 140.808V148.539L24.2259 131.972C22.2459 130.926 19.3924 128.775 16.9465 125.346C14.2677 121.567 12.4042 116.801 12.4042 111.453C12.4042 106.163 14.2677 103.431 16.8883 102.676C19.3342 101.978 22.1877 103.025 24.1677 104.187L33.5435 109.593C34.8829 110.349 35.9312 110.697 36.5717 110.465C37.0959 110.291 38.0276 109.535 38.0276 105.64C38.0276 103.083 37.2123 101.455 36.397 100.293C35.4653 99.0137 34.2423 97.9674 33.4853 97.5605Z" fill="white"/>
<path d="M17.3541 85.1211C17.3541 91.7477 13.4523 94.8285 8.67703 92.0965C3.90175 89.3644 0 81.7497 0 75.1231C0 68.4965 3.90175 65.4157 8.67703 68.1477C13.4523 70.9378 17.3541 78.5526 17.3541 85.1211Z" fill="#F2C94C"/>
<path d="M63.3598 149.062C63.3598 155.689 59.458 158.769 54.6828 156.037C49.9075 153.305 46.0057 145.691 46.0057 139.064C46.0057 132.437 49.9075 129.357 54.6828 132.089C59.458 134.879 63.3598 142.494 63.3598 149.062Z" fill="#F2C94C"/>
<path opacity="0.2" d="M125.264 351.173C128.758 353.208 131.553 358.032 131.553 362.101V379.831L143.317 386.573C146.811 388.608 149.606 393.433 149.606 397.501C149.606 401.512 146.753 403.14 143.317 401.164L131.553 394.421V412.15C131.553 416.161 128.7 417.788 125.264 415.812C121.77 413.777 118.975 408.953 118.975 404.884V387.155L107.211 380.412C103.717 378.377 100.922 373.553 100.922 369.484C100.922 365.473 103.775 363.845 107.211 365.822L118.975 372.565V354.835C118.975 350.766 121.77 349.139 125.264 351.173Z" fill="url(#paint9_linear)"/>
<defs>
<linearGradient id="paint0_linear" x1="461.58" y1="42.524" x2="318.35" y2="291.219" gradientUnits="userSpaceOnUse">
<stop stop-color="white"/>
<stop offset="1" stop-color="white" stop-opacity="0"/>
</linearGradient>
<linearGradient id="paint1_linear" x1="392.52" y1="1.67638" x2="249.291" y2="250.372" gradientUnits="userSpaceOnUse">
<stop stop-color="white"/>
<stop offset="1" stop-color="white" stop-opacity="0"/>
</linearGradient>
<linearGradient id="paint2_linear" x1="438.286" y1="59.9624" x2="295.056" y2="308.658" gradientUnits="userSpaceOnUse">
<stop stop-color="white"/>
<stop offset="1" stop-color="white" stop-opacity="0"/>
</linearGradient>
<linearGradient id="paint3_linear" x1="369.226" y1="19.1147" x2="225.996" y2="267.81" gradientUnits="userSpaceOnUse">
<stop stop-color="white"/>
<stop offset="1" stop-color="white" stop-opacity="0"/>
</linearGradient>
<linearGradient id="paint4_linear" x1="185.887" y1="65.5048" x2="91.0697" y2="230.079" gradientUnits="userSpaceOnUse">
<stop stop-color="white"/>
<stop offset="1" stop-color="white" stop-opacity="0"/>
</linearGradient>
<linearGradient id="paint5_linear" x1="118.705" y1="7.599" x2="148.895" y2="93.3596" gradientUnits="userSpaceOnUse">
<stop stop-color="white"/>
<stop offset="1" stop-color="white" stop-opacity="0"/>
</linearGradient>
<linearGradient id="paint6_linear" x1="308.508" y1="285.126" x2="216.405" y2="448.436" gradientUnits="userSpaceOnUse">
<stop stop-color="white"/>
<stop offset="1" stop-color="white" stop-opacity="0"/>
</linearGradient>
<linearGradient id="paint7_linear" x1="240.994" y1="228.21" x2="271.185" y2="313.97" gradientUnits="userSpaceOnUse">
<stop stop-color="white"/>
<stop offset="1" stop-color="white" stop-opacity="0"/>
</linearGradient>
<linearGradient id="paint8_linear" x1="151.838" y1="224.589" x2="62.4841" y2="294.679" gradientUnits="userSpaceOnUse">
<stop stop-color="white"/>
<stop offset="1" stop-color="white" stop-opacity="0"/>
</linearGradient>
<linearGradient id="paint9_linear" x1="137.411" y1="373.822" x2="106.955" y2="397.886" gradientUnits="userSpaceOnUse">
<stop stop-color="white"/>
<stop offset="1" stop-color="white" stop-opacity="0"/>
</linearGradient>
</defs>
</svg>
